# xmcd
#
# Track frame offsets:
#	150
#	34983
#	71191
#	102339
#	126251
#	149458
#	194097
#
# Disc length: 3484 seconds
#
# Revision: 1
# Processed by: cddbd v1.5.2PL0 Copyright (c) Steve Scherf et al.
# Submitted via: audiograbber 1.83.01
#
DISCID=730d9a07
DTITLE=Joe Bonamassa - Live At The BBC [CD2]
DYEAR=2010
DGENRE=
TTITLE0=Great Flood
TTITLE1=Woke Up Dreaming
TTITLE2=The Ballad Of John Henry
TTITLE3=Wandering Earth
TTITLE4=Bird On A Wire
TTITLE5=Just Got Paid
TTITLE6=Mountain Time
EXTD=
EXTT0=
EXTT1=
EXTT2=
EXTT3=
EXTT4=
EXTT5=
EXTT6=
PLAYORDER=
